<?xml version="1.0" encoding="UTF-8"?>
<svg version="1.1" xmlns="http://www.w3.org/2000/svg" width="1024" height="1024">
<path d="M0 0 C337.92 0 675.84 0 1024 0 C1024 337.92 1024 675.84 1024 1024 C686.08 1024 348.16 1024 0 1024 C0 686.08 0 348.16 0 0 Z " fill="#0EC479" transform="translate(0,0)"/>
<path d="M0 0 C1.16991486 0.00087616 2.33982971 0.00175232 3.54519653 0.00265503 C54.13225182 0.12741424 104.54566051 11.51549048 149.43212891 35.38623047 C151.38294846 36.41204444 153.35067964 37.39758584 155.32421875 38.37890625 C173.6169177 47.59206459 190.40203801 59.52992971 206.3125 72.375 C206.91658691 72.86194336 207.52067383 73.34888672 208.14306641 73.85058594 C216.79289831 80.90596787 224.77432908 88.63797715 232.6875 96.5 C233.60297607 97.40613037 234.51845215 98.31226074 235.46166992 99.24584961 C241.50187292 105.31459332 247.00331983 111.66092493 252.3125 118.375 C253.17052693 119.43493306 254.02858986 120.49483698 254.88671875 121.5546875 C292.6565073 169.72687622 315.562832 226.83041201 323.3125 287.375 C323.44181664 288.33659279 323.44181664 288.33659279 323.57374573 289.31761169 C324.3576083 295.60159796 324.50539114 301.83211648 324.55078125 308.16015625 C324.56048447 309.28238586 324.57018768 310.40461548 324.58018494 311.56085205 C324.60508001 315.18643789 324.61770917 318.81183724 324.625 322.4375 C324.62761841 323.67164642 324.63023682 324.90579285 324.63293457 326.17733765 C324.63734622 345.56417031 323.82522723 364.27746257 320.3125 383.375 C320.15765137 384.24543945 320.00280273 385.11587891 319.84326172 386.01269531 C318.89076961 391.2002437 317.66693216 396.27949948 316.3125 401.375 C316.08224121 402.27605469 315.85198242 403.17710937 315.61474609 404.10546875 C301.64266219 458.52022123 275.25347184 507.88859911 236.70703125 548.87890625 C235.22609463 550.4676982 233.76773332 552.07514638 232.3125 553.6875 C226.3033065 560.32843169 220.16972662 566.59041218 213.3125 572.375 C212.47041992 573.0855957 212.47041992 573.0855957 211.61132812 573.81054688 C160.88700397 616.37603794 102.58760889 640.48265309 37.3125 649.375 C35.48054077 649.64763672 35.48054077 649.64763672 33.61157227 649.92578125 C28.1664011 650.59372661 22.7094914 650.55693626 17.23046875 650.578125 C16.062845 650.58382507 14.89522125 650.58952515 13.69221497 650.59539795 C11.21693823 650.60482307 8.74164909 650.61137201 6.26635742 650.61523438 C2.57772005 650.62479848 -1.11032468 650.65578586 -4.79882812 650.6875 C-28.03380034 650.79167655 -50.55968891 648.74684023 -73.10400391 643.0234375 C-75.66087694 642.38168218 -78.22421462 641.77971997 -80.79296875 641.1875 C-144.22981061 626.35850778 -207.80839778 586.30170862 -247.6875 534.375 C-248.58342528 533.28721179 -249.4834661 532.20280533 -250.38671875 531.12109375 C-281.04048827 494.16463249 -302.19704114 449.8417424 -313.6875 403.375 C-313.92694336 402.41432617 -314.16638672 401.45365234 -314.41308594 400.46386719 C-318.05806443 385.56545996 -320.16310116 370.62557616 -321.6875 355.375 C-321.83215698 354.04674194 -321.83215698 354.04674194 -321.97973633 352.69165039 C-326.58077732 307.84891334 -319.6100924 259.71615502 -304.6875 217.375 C-304.35911133 216.42737793 -304.03072266 215.47975586 -303.69238281 214.50341797 C-290.4161019 176.48383099 -270.37264747 140.53805336 -242.953125 110.8515625 C-241.08576242 108.81034203 -239.27441797 106.73967522 -237.46875 104.64453125 C-227.53223402 93.26347634 -216.6367141 82.61776817 -204.6875 73.375 C-203.56239057 72.45251851 -202.44018332 71.52649029 -201.3203125 70.59765625 C-187.40593709 59.12039912 -172.32979351 49.32936687 -156.6875 40.375 C-155.01107422 39.41207031 -155.01107422 39.41207031 -153.30078125 38.4296875 C-126.11441868 23.3904231 -96.14282391 12.49181981 -65.6875 6.375 C-64.33519287 6.10115479 -64.33519287 6.10115479 -62.95556641 5.82177734 C-60.13988954 5.26079396 -57.32141022 4.7188623 -54.5 4.1875 C-53.68208984 4.0323291 -52.86417969 3.8771582 -52.02148438 3.71728516 C-34.69169539 0.61591582 -17.57376328 -0.03217642 0 0 Z " fill="#0F1717" transform="translate(510.6875,184.625)"/>
<path d="M0 0 C0.68513672 0.24733887 1.37027344 0.49467773 2.07617188 0.74951172 C17.29701065 6.3158102 30.7362236 14.3867148 43 25 C43.82886719 25.69609375 44.65773438 26.3921875 45.51171875 27.109375 C65.67760309 44.52676975 80.06001046 69.40878856 87 95 C87.20882813 95.7420166 87.41765625 96.4840332 87.6328125 97.24853516 C93.31103372 118.14205326 93.28289763 142.00131255 88 163 C87.70198486 164.20076172 87.70198486 164.20076172 87.39794922 165.42578125 C84.32580645 177.4105899 79.9908932 188.19670106 74 199 C73.4225 200.07894531 72.845 201.15789062 72.25 202.26953125 C68.22972408 209.51905658 63.43427559 215.75792669 58 222 C57.278125 222.8559375 56.55625 223.711875 55.8125 224.59375 C50.42682411 230.82574639 44.54456093 236.01188193 38 241 C37.24460937 241.58265625 36.48921875 242.1653125 35.7109375 242.765625 C19.7572624 254.49788092 1.44805514 263.12882315 -18 267 C-18.67869141 267.13535156 -19.35738281 267.27070312 -20.05664062 267.41015625 C-56.62634436 274.48816342 -93.30803254 267.01872244 -124.390625 246.4921875 C-154.10759506 226.25041889 -175.33198209 195.08390101 -182.45751953 159.72998047 C-189.50640849 122.02184632 -182.03353175 83.27731486 -160.36230469 51.44067383 C-149.40927318 35.92099758 -135.85454179 23.39836532 -120 13 C-119.21367187 12.46632813 -118.42734375 11.93265625 -117.6171875 11.3828125 C-83.51986221 -10.59629962 -37.61636965 -13.96138844 0 0 Z " fill="#0EC379" transform="translate(559,379)"/>
<path d="M0 0 C0.67055923 -0.00287018 1.34111847 -0.00574036 2.03199768 -0.00869751 C3.44655199 -0.01073371 4.86113474 -0.0052348 6.27563477 0.00732422 C8.43114815 0.02336118 10.58477966 0.00747585 12.74023438 -0.01171875 C14.11849369 -0.00973574 15.49675185 -0.00589088 16.875 0 C18.1220874 0.00338379 19.3691748 0.00676758 20.65405273 0.01025391 C24.27303791 0.42962468 26.12707125 1.20383166 29.00390625 3.3984375 C31.26358753 6.78795942 31.25802693 7.95293415 31.27133179 11.92660522 C31.27986176 13.07624252 31.28839172 14.22587982 31.29718018 15.41035461 C31.2962738 16.67276474 31.29536743 17.93517487 31.29443359 19.23583984 C31.30041754 20.5779101 31.30722278 21.91997691 31.31478882 23.26203918 C31.3324703 26.90879354 31.33714511 30.55545407 31.33842039 34.20224714 C31.34031906 37.24646358 31.34767628 40.29065814 31.35476458 43.33486617 C31.3710545 50.51752621 31.37593301 57.70013611 31.37451172 64.8828125 C31.37331028 72.2918069 31.39441089 79.70050999 31.42599905 87.10943067 C31.45215294 93.47046478 31.46287938 99.8314037 31.4616009 106.19249117 C31.46109097 109.99164543 31.46679055 113.79054087 31.487957 117.58964157 C31.50732461 121.1635176 31.50747453 124.73688758 31.49292374 128.31078148 C31.48983632 130.24570032 31.50652272 132.18061912 31.52380371 134.11546326 C31.51541473 135.2707402 31.50702576 136.42601715 31.49838257 137.61630249 C31.4994721 138.61808218 31.50056164 139.61986187 31.50168419 140.65199852 C30.866366 144.15730177 29.43436237 145.8437699 27.00390625 148.3984375 C22.52868239 150.63604943 16.48490839 149.70833329 11.51074219 149.74853516 C10.01318788 149.76505945 8.5157113 149.79230356 7.01855469 149.83056641 C4.85180039 149.88562092 2.68689281 149.9072514 0.51953125 149.921875 C-0.77694336 149.94169434 -2.07341797 149.96151367 -3.40917969 149.98193359 C-8.10389072 149.21822822 -9.66696403 147.72694026 -12.99609375 144.3984375 C-14.28243038 141.82576424 -14.12778698 139.98613893 -14.13653564 137.10441589 C-14.14224579 135.98139572 -14.14795593 134.85837555 -14.15383911 133.70132446 C-14.15495697 132.46337128 -14.15607483 131.22541809 -14.15722656 129.94995117 C-14.16219147 128.65071213 -14.16715637 127.35147308 -14.17227173 126.01286316 C-14.18540457 122.44251232 -14.19184253 118.8721803 -14.19628239 115.30180907 C-14.19921202 113.07153237 -14.20331664 110.84126082 -14.20778656 108.61098671 C-14.22146454 101.63404208 -14.23112942 94.65710922 -14.23498845 87.68015212 C-14.23946848 79.62446609 -14.25701243 71.5689498 -14.28598905 63.51331538 C-14.30760427 57.28819181 -14.31769266 51.063116 -14.31902957 44.8379553 C-14.32007783 41.11930751 -14.32598969 37.40081922 -14.34384918 33.68221092 C-14.36338815 29.53307166 -14.35904155 25.38428758 -14.35253906 21.23510742 C-14.36175385 20.00322693 -14.37096863 18.77134644 -14.38046265 17.50213623 C-14.37210892 15.80491676 -14.37210892 15.80491676 -14.36358643 14.07341003 C-14.36505299 13.09245456 -14.36651955 12.11149908 -14.36803055 11.10081768 C-13.81723137 7.09887761 -12.03846518 4.46305511 -9.24584961 1.61083984 C-6.09288123 -0.08830731 -3.56965022 0.00969449 0 0 Z " fill="#0F1817" transform="translate(563.99609375,431.6015625)"/>
<path d="M0 0 C2.87029869 1.79393668 4.49131638 2.98263276 6 6 C6.38348376 11.08115976 6.17998422 13.98221224 3 18 C0.21644387 19.85557726 -2.74528197 21.28810213 -5.75 22.75 C-7.47951344 23.62696408 -9.20736205 24.50721861 -10.93359375 25.390625 C-11.79194824 25.82826172 -12.65030273 26.26589844 -13.53466797 26.71679688 C-29.76340363 35.16383932 -44.29496817 45.9494901 -58 58 C-58.8971875 58.78503906 -59.794375 59.57007813 -60.71875 60.37890625 C-70.01077478 68.62414429 -78.27947642 77.26653463 -86 87 C-86.85040827 88.03740558 -87.70200527 89.07383766 -88.5546875 90.109375 C-107.3305859 113.13187505 -122.42654547 139.97711104 -131.73339844 168.22607422 C-132.76103496 171.25587774 -133.65062164 173.6339154 -135.87890625 175.96875 C-139.83562369 177.89245793 -143.72430193 177.70455768 -148 177 C-151.125 175.125 -151.125 175.125 -153 172 C-153.84912748 165.34850137 -152.69076036 159.591659 -150.25 153.4375 C-149.94344482 152.64013428 -149.63688965 151.84276855 -149.32104492 151.02124023 C-131.61062374 106.23484358 -102.16945251 63.82587872 -64 34 C-62.75516978 33.00265228 -61.51038069 32.00525323 -60.265625 31.0078125 C-46.72416348 20.28056326 -32.27318636 10.81111706 -16.75 3.1875 C-16.09580078 2.85580811 -15.44160156 2.52411621 -14.76757812 2.18237305 C-9.93227553 -0.07133823 -5.31415107 -0.78851358 0 0 Z " fill="#0FC47A" transform="translate(409,266)"/>
<path d="M0 0 C0.73573242 -0.00478363 1.47146484 -0.00956726 2.22949219 -0.01449585 C3.77931873 -0.0178863 5.32921761 -0.00874342 6.87890625 0.01220703 C9.24381786 0.03899248 11.60398502 0.01243833 13.96875 -0.01953125 C15.47917708 -0.01622699 16.98960123 -0.0098204 18.5 0 C19.5533252 -0.01518173 19.5533252 -0.01518173 20.62792969 -0.03067017 C24.52653258 0.06184126 26.12784347 0.56303431 29.171875 3.08056641 C32.73711885 7.51282796 32.41627648 11.10802929 32.44287109 16.60839844 C32.45513733 17.99889404 32.45513733 17.99889404 32.46765137 19.41748047 C32.49252464 22.49445953 32.50902681 25.57139238 32.5234375 28.6484375 C32.52876118 29.69824043 32.53408485 30.74804337 32.53956985 31.82965851 C32.56631051 37.38675711 32.58568203 42.94383317 32.60009766 48.50097656 C32.6167429 54.24236865 32.66151742 59.98318644 32.7124691 65.72436142 C32.74611973 70.13731549 32.75767277 74.55013294 32.76332474 78.96320343 C32.77004379 81.07951493 32.78528274 83.19581725 32.80921555 85.31200409 C32.84082091 88.27586178 32.84091052 91.23816659 32.83349609 94.20214844 C32.84990143 95.07510559 32.86630676 95.94806274 32.88320923 96.84747314 C32.83975062 101.09547357 32.55795858 103.82443958 29.83853149 107.19293213 C24.66658419 112.13030921 18.47006816 110.92310609 11.7019043 110.95922852 C9.45624427 110.97641901 7.21206567 111.0203025 4.96679688 111.06445312 C3.53386497 111.07458251 2.10092057 111.08309785 0.66796875 111.08984375 C-0.63374268 111.10442627 -1.9354541 111.11900879 -3.27661133 111.1340332 C-7.29929945 110.58973893 -8.91039736 109.50300454 -11.75 106.6640625 C-13.47565155 103.21275941 -12.92509538 99.22849775 -12.94287109 95.4284668 C-12.95104858 94.47060272 -12.95922607 93.51273865 -12.96765137 92.52584839 C-12.9925241 89.34666576 -13.00902557 86.16752781 -13.0234375 82.98828125 C-13.02876118 81.90413248 -13.03408485 80.81998371 -13.03956985 79.70298195 C-13.06630867 73.96548799 -13.08568188 68.22801585 -13.10009766 62.49047852 C-13.11675388 56.55842632 -13.16153818 50.62692879 -13.2124691 44.69508648 C-13.24609135 40.13891446 -13.25766958 35.58287494 -13.26332474 31.02659035 C-13.2700503 28.83967661 -13.28530602 26.65277199 -13.30921555 24.46597862 C-13.3407636 21.40613699 -13.34091922 18.34780274 -13.33349609 15.2878418 C-13.34990143 14.38323715 -13.36630676 13.47863251 -13.38320923 12.5466156 C-13.33920416 8.11893863 -13.1833606 6.23810234 -10.43911743 2.60301208 C-6.97626541 0.10617226 -4.12273582 -0.0594216 0 0 Z " fill="#0F1717" transform="translate(499.75,470.3359375)"/>
<path d="M0 0 C3.62760073 1.64890942 6.08652985 3.47518657 8 7 C8.56963527 10.74331749 8.2256175 12.57104116 6.45703125 15.93359375 C3.4345522 19.70568605 0.54912131 21.16361491 -3.75 23.1875 C-28.53933607 35.62614438 -49.6942309 54.67017201 -66 77 C-66.41459473 77.56493164 -66.82918945 78.12986328 -67.25634766 78.71191406 C-77.90228308 93.42128025 -86.72671173 109.95936123 -92.62109375 127.13671875 C-94.25003682 130.51919827 -95.83947896 132.00739397 -99 134 C-102.90395 134.93901828 -106.23237777 134.3337488 -109.875 132.75 C-112.19924543 130.83591553 -113.12336743 129.86897932 -114 127 C-114.62154146 120.49901229 -112.67017824 115.91895338 -110.0625 110.125 C-109.65427002 109.20098389 -109.24604004 108.27696777 -108.82543945 107.32495117 C-89.47704032 64.13397143 -59.4878936 28.68274883 -17.75634766 5.97509766 C-16.22776904 5.12645393 -14.72631042 4.229319 -13.23046875 3.32421875 C-8.66163644 0.56112595 -5.5051223 -0.84694189 0 0 Z " fill="#0FC47A" transform="translate(433,326)"/>
<path d="M0 0 C2.25428711 -0.00966675 4.50764739 -0.04065726 6.76171875 -0.07226562 C8.19921334 -0.07879951 9.63671445 -0.08404847 11.07421875 -0.08789062 C13.03633301 -0.10190918 13.03633301 -0.10190918 15.03808594 -0.11621094 C18.75861577 0.26385998 20.59081793 0.973093 23.52734375 3.24023438 C25.70938447 6.51329546 25.78261895 7.48011311 25.80200195 11.27490234 C25.81629997 12.81197342 25.81629997 12.81197342 25.83088684 14.38009644 C25.82997543 15.48636383 25.82906403 16.59263123 25.828125 17.73242188 C25.83241013 18.870513 25.83669525 20.00860413 25.84111023 21.18118286 C25.84685709 23.59034561 25.84735119 25.99952571 25.84301758 28.40869141 C25.83986217 32.09372636 25.8632976 35.77795524 25.88867188 39.46289062 C25.89094528 41.80273336 25.89164817 44.14257826 25.890625 46.48242188 C25.89983475 47.58464081 25.90904449 48.68685974 25.91853333 49.82247925 C25.91230453 50.85349762 25.90607574 51.88451599 25.8996582 52.94677734 C25.90028763 53.85040009 25.90091705 54.75402283 25.90156555 55.68502808 C25.44597932 58.795795 24.3272762 60.68569273 22.52734375 63.24023438 C17.69138776 66.83677693 10.60260707 65.61211184 4.82836914 65.61083984 C2.60029702 65.61521385 0.37420642 65.65155749 -1.85351562 65.68945312 C-3.27733701 65.69532191 -4.70116776 65.69929089 -6.125 65.70117188 C-7.41398193 65.70938965 -8.70296387 65.71760742 -10.03100586 65.72607422 C-14.02359279 65.16246154 -15.64692099 64.05645758 -18.47265625 61.24023438 C-19.71907512 58.74739664 -19.6266186 57.01682625 -19.66552734 54.22729492 C-19.68159027 53.18248459 -19.6976532 52.13767426 -19.71420288 51.061203 C-19.75859431 46.28079832 -19.79971505 41.50053321 -19.82275391 36.7199707 C-19.83932081 34.19709046 -19.86662009 31.67425728 -19.90478516 29.15161133 C-19.95948814 25.51814368 -19.98141874 21.88577684 -19.99609375 18.25195312 C-20.01876312 17.12472336 -20.0414325 15.99749359 -20.06478882 14.83610535 C-20.04122619 6.11997296 -20.04122619 6.11997296 -17.00244141 3.05200195 C-16.1676123 2.45411865 -15.3327832 1.85623535 -14.47265625 1.24023438 C-11.77172674 -1.46069514 -3.89912637 0.01013638 0 0 Z " fill="#0F1716" transform="translate(442.47265625,515.759765625)"/>
<path d="M0 0 C0.33 0 0.66 0 1 0 C1.33 44.88 1.66 89.76 2 136 C1.34 136 0.68 136 0 136 C-0.495 136.99 -0.495 136.99 -1 138 C-3.2034295 136.26367074 -3.94109228 135.38787963 -4.36914349 132.56936359 C-4.36637811 131.59871558 -4.36361273 130.62806757 -4.36076355 129.62800598 C-4.36488754 128.51321365 -4.36901154 127.39842133 -4.3732605 126.24984741 C-4.36247467 125.02633575 -4.35168884 123.8028241 -4.34057617 122.54223633 C-4.34101425 121.25432693 -4.34145233 119.96641754 -4.34190369 118.63948059 C-4.34276541 115.10658783 -4.32511124 111.57399984 -4.30418181 108.04117799 C-4.28544444 104.34962647 -4.2836669 100.65806818 -4.28010559 96.96647644 C-4.27077645 89.97539693 -4.246151 82.98445793 -4.21605712 75.99344033 C-4.18254007 68.03465448 -4.1660339 60.07586196 -4.15097082 52.11702311 C-4.11960214 35.74459978 -4.06682486 19.37231781 -4 3 C-3.34 2.67 -2.68 2.34 -2 2 C-1.67 45.23 -1.34 88.46 -1 133 C-0.67 89.11 -0.34 45.22 0 0 Z " fill="#1FC784" transform="translate(549,440)"/>
<path d="M0 0 C58.26823706 -0.7947336 58.26823706 -0.7947336 69 5 C68.08476563 4.98839844 67.16953125 4.97679687 66.2265625 4.96484375 C65.03804687 4.95582031 63.84953125 4.94679687 62.625 4.9375 C61.44164062 4.92589844 60.25828125 4.91429687 59.0390625 4.90234375 C56.08078479 4.78533407 56.08078479 4.78533407 54 6 C51.7927077 6.07092842 49.58332548 6.08415025 47.375 6.0625 C46.18648437 6.05347656 44.99796875 6.04445312 43.7734375 6.03515625 C42.85820313 6.02355469 41.94296875 6.01195312 41 6 C40.505 5.01 40.505 5.01 40 4 C41.65 3.67 43.3 3.34 45 3 C30.15 2.34 15.3 1.68 0 1 C0 0.67 0 0.34 0 0 Z " fill="#05190F" transform="translate(496,185)"/>
<path d="M0 0 C1.39120471 0.00015906 2.78241534 0.00585033 4.17358398 0.01586914 C4.90463852 0.01728409 5.63569305 0.01869904 6.38890076 0.02015686 C8.73253406 0.02577131 11.07607313 0.03832617 13.41967773 0.05102539 C15.00496282 0.05603853 16.59024939 0.06060176 18.17553711 0.06469727 C22.06945383 0.07574542 25.96329979 0.09301967 29.85717773 0.11352539 C28.89811523 0.82508789 28.89811523 0.82508789 27.91967773 1.55102539 C25.97424467 2.95091265 25.97424467 2.95091265 24.85717773 4.11352539 C20.76819284 4.58223673 16.65424588 4.723841 12.54467773 4.92602539 C10.81314453 5.04107422 10.81314453 5.04107422 9.04663086 5.15844727 C7.38083984 5.23869141 7.38083984 5.23869141 5.68139648 5.32055664 C4.15131958 5.40527222 4.15131958 5.40527222 2.59033203 5.49169922 C-0.85957995 5.01435097 -1.97075872 3.75170256 -4.14282227 1.11352539 C-3.14282227 0.11352539 -3.14282227 0.11352539 0 0 Z M-3.14282227 3.11352539 C-2.81282227 4.10352539 -2.48282227 5.09352539 -2.14282227 6.11352539 C-2.80282227 6.11352539 -3.46282227 6.11352539 -4.14282227 6.11352539 C-3.81282227 5.12352539 -3.48282227 4.13352539 -3.14282227 3.11352539 Z " fill="#05140F" transform="translate(495.142822265625,470.886474609375)"/>
<path d="M0 0 C0.33 0 0.66 0 1 0 C1.1451001 0.66717041 1.2902002 1.33434082 1.43969727 2.02172852 C4.38883947 15.46692181 7.56980336 28.71227469 11.90258789 41.78735352 C12.33559204 43.12624634 12.33559204 43.12624634 12.77734375 44.4921875 C13.03765381 45.26933105 13.29796387 46.04647461 13.56616211 46.84716797 C14.04995393 49.24788618 13.77166382 50.69971625 13 53 C5.63199536 32.81886295 5.63199536 32.81886295 3.5078125 22.23828125 C3.21833774 20.04062693 3.21833774 20.04062693 2 19 C0.26699897 12.62458017 -0.21225012 6.57975358 0 0 Z " fill="#28C183" transform="translate(193,570)"/>
<path d="M0 0 C1.39456452 0.00667256 2.78911118 0.01863093 4.18359375 0.03515625 C4.89451172 0.03966797 5.60542969 0.04417969 6.33789062 0.04882812 C8.09899388 0.06064761 9.86005411 0.07858362 11.62109375 0.09765625 C6.9627694 2.68561422 2.59882095 3.22618097 -2.6796875 3.1953125 C-3.65615234 3.19208984 -4.63261719 3.18886719 -5.63867188 3.18554688 C-6.64607422 3.17716797 -7.65347656 3.16878906 -8.69140625 3.16015625 C-9.71814453 3.15564453 -10.74488281 3.15113281 -11.80273438 3.14648438 C-14.32818507 3.13473809 -16.8535153 3.1183119 -19.37890625 3.09765625 C-19.37890625 2.76765625 -19.37890625 2.43765625 -19.37890625 2.09765625 C-18.30769531 2.03707031 -17.23648437 1.97648438 -16.1328125 1.9140625 C-14.73566234 1.82967088 -13.33852768 1.74502219 -11.94140625 1.66015625 C-10.88083008 1.60118164 -10.88083008 1.60118164 -9.79882812 1.54101562 C-6.12484997 1.31249067 -3.49677298 0.1010628 0 0 Z " fill="#14CF83" transform="translate(518.37890625,644.90234375)"/>
<path d="M0 0 C1 3 1 3 1 7 C0.01 7 -0.98 7 -2 7 C-2 8.65 -2 10.3 -2 12 C-2.66 12 -3.32 12 -4 12 C-4.309375 13.258125 -4.61875 14.51625 -4.9375 15.8125 C-5.53978048 18.26177394 -6.20088641 20.60265923 -7 23 C-7.66 23 -8.32 23 -9 23 C-3.76595745 3.76595745 -3.76595745 3.76595745 0 0 Z " fill="#1FC280" transform="translate(266,404)"/>
<path d="M0 0 C1.14806133 3.41975716 0.83383098 5.72148953 0.00390625 9.203125 C-0.22490234 10.1828125 -0.45371094 11.1625 -0.68945312 12.171875 C-0.93630859 13.18765625 -1.18316406 14.2034375 -1.4375 15.25 C-1.80198242 16.796875 -1.80198242 16.796875 -2.17382812 18.375 C-2.77442781 20.91871633 -3.38341641 23.46011941 -4 26 C-4.33 26 -4.66 26 -5 26 C-4.85775413 23.47891897 -4.71129879 20.95819597 -4.5625 18.4375 C-4.52318359 17.73302734 -4.48386719 17.02855469 -4.44335938 16.30273438 C-4.17481721 11.8201459 -3.69383803 7.43706503 -3 3 C-2.34 3 -1.68 3 -1 3 C-0.67 2.01 -0.34 1.02 0 0 Z " fill="#28C687" transform="translate(198,424)"/>
<path d="M0 0 C0.33 0.66 0.66 1.32 1 2 C1.66 2 2.32 2 3 2 C3 2.99 3 3.98 3 5 C2.12601562 5.04447266 2.12601562 5.04447266 1.234375 5.08984375 C-2.19560764 6.48702199 -3.19557034 9.39693403 -4.75 12.5625 C-5.22373047 13.48579102 -5.22373047 13.48579102 -5.70703125 14.42773438 C-6.48361889 15.94561021 -7.24345561 17.47203534 -8 19 C-9 16 -9 16 -7.3828125 12.4609375 C-6.64047576 11.09333505 -5.88740383 9.73151785 -5.125 8.375 C-4.55845703 7.33472656 -4.55845703 7.33472656 -3.98046875 6.2734375 C-1.19118642 1.19118642 -1.19118642 1.19118642 0 0 Z " fill="#22C383" transform="translate(396,435)"/>
<path d="M0 0 C0 3.78238119 -1.14103538 4.87510466 -3.375 7.875 C-5.32319849 10.49664981 -6.89165626 12.72565816 -8.09375 15.76953125 C-8.3928125 16.50558594 -8.691875 17.24164062 -9 18 C-11.125 18.8125 -11.125 18.8125 -13 19 C-11.68779266 16.22561876 -10.22517631 13.79209828 -8.3984375 11.328125 C-7.90859375 10.66425781 -7.41875 10.00039063 -6.9140625 9.31640625 C-6.40617188 8.63449219 -5.89828125 7.95257812 -5.375 7.25 C-4.859375 6.55261719 -4.34375 5.85523438 -3.8125 5.13671875 C-2.54440881 3.42244733 -1.2725711 1.71094844 0 0 Z " fill="#08110B" transform="translate(630,583)"/>
<path d="M0 0 C0.66 0.33 1.32 0.66 2 1 C0.576875 1.8971875 0.576875 1.8971875 -0.875 2.8125 C-4.13964197 4.81562526 -4.13964197 4.81562526 -6 8 C-7.875 9.203125 -7.875 9.203125 -10 10.25 C-11.051875 10.78367187 -11.051875 10.78367187 -12.125 11.328125 C-12.74375 11.54984375 -13.3625 11.7715625 -14 12 C-14.66 11.67 -15.32 11.34 -16 11 C-14.27278316 9.72651788 -12.54313762 8.45632943 -10.8125 7.1875 C-9.84957031 6.47980469 -8.88664062 5.77210938 -7.89453125 5.04296875 C-5.30857667 3.21779433 -2.80897441 1.46027858 0 0 Z " fill="#1FCC87" transform="translate(373,280)"/>
<path d="M0 0 C0.66 0 1.32 0 2 0 C2.50130606 5.26371362 1.31168629 7.9090934 -2 12 C-2.66 12 -3.32 12 -4 12 C-4.33 10.68 -4.66 9.36 -5 8 C-4.0409375 7.690625 -4.0409375 7.690625 -3.0625 7.375 C-0.65074923 6.10461791 -0.65074923 6.10461791 -0.25 2.875 C-0.1675 1.92625 -0.085 0.9775 0 0 Z " fill="#1EBD7C" transform="translate(439,333)"/>
<path d="M0 0 C3.37462715 0.54723683 5.08235 1.0549 8 3 C2.555 5.475 2.555 5.475 -3 8 C-3 7.34 -3 6.68 -3 6 C-1.02 5.34 0.96 4.68 3 4 C2.01 4 1.02 4 0 4 C-0.99 3.67 -1.98 3.34 -3 3 C-2.01 2.67 -1.02 2.34 0 2 C0 1.34 0 0.68 0 0 Z " fill="#1CBF7D" transform="translate(374,209)"/>
<path d="M0 0 C1.11367327 4.03706561 1 7.83395668 1 12 C0.01 11.67 -0.98 11.34 -2 11 C-2.33 11.99 -2.66 12.98 -3 14 C-3.66 14 -4.32 14 -5 14 C-3.45730076 9.27934033 -1.92205381 4.58335908 0 0 Z " fill="#061B10" transform="translate(286,410)"/>
<path d="M0 0 C0.33 0.66 0.66 1.32 1 2 C0.2578125 3.8046875 0.2578125 3.8046875 -0.875 5.875 C-2.3439991 8.57672562 -3.3645044 10.98477618 -4 14 C-4.66 14 -5.32 14 -6 14 C-6.33 14.99 -6.66 15.98 -7 17 C-7.33 16.34 -7.66 15.68 -8 15 C-6.75874818 12.38838269 -5.4689476 9.89498214 -4.0625 7.375 C-3.48338867 6.31539063 -3.48338867 6.31539063 -2.89257812 5.234375 C-1.93551304 3.48566349 -0.96865969 1.74231568 0 0 Z " fill="#26C586" transform="translate(335,412)"/>
<path d="M0 0 C1.32 0.33 2.64 0.66 4 1 C2.85821872 2.66944521 1.71147095 4.3354948 0.5625 6 C-0.07558594 6.928125 -0.71367187 7.85625 -1.37109375 8.8125 C-1.90863281 9.534375 -2.44617188 10.25625 -3 11 C-3.33 11 -3.66 11 -4 11 C-4 9.35 -4 7.7 -4 6 C-3.34 5.67 -2.68 5.34 -2 5 C-2 4.34 -2 3.68 -2 3 C-1.34 3 -0.68 3 0 3 C0 2.01 0 1.02 0 0 Z " fill="#19C27D" transform="translate(245,319)"/>
<path d="M0 0 C0.66 0 1.32 0 2 0 C2 0.99 2 1.98 2 3 C3.32 3.33 4.64 3.66 6 4 C6 4.66 6 5.32 6 6 C6.99 6.33 7.98 6.66 9 7 C8.01 7.495 8.01 7.495 7 8 C4.6171875 7.00390625 4.6171875 7.00390625 1.875 5.5625 C0.96492187 5.08941406 0.05484375 4.61632812 -0.8828125 4.12890625 C-1.58148437 3.75636719 -2.28015625 3.38382813 -3 3 C-2.01 2.67 -1.02 2.34 0 2 C0 1.34 0 0.68 0 0 Z " fill="#1FC07F" transform="translate(650,211)"/>
<path d="M0 0 C2.86724686 0.57344937 3.8614515 0.8614515 6 3 C2.25 6 2.25 6 0 6 C0 5.34 0 4.68 0 4 C-0.66 4 -1.32 4 -2 4 C-2 3.34 -2 2.68 -2 2 C-1.34 2 -0.68 2 0 2 C0 1.34 0 0.68 0 0 Z " fill="#18C07C" transform="translate(344,225)"/>
<path d="M0 0 C-2.51822275 2.42472438 -3.67533206 2.99254989 -7.234375 3.07421875 C-8.39453125 2.94660156 -9.5546875 2.81898438 -10.75 2.6875 C-11.92046875 2.56761719 -13.0909375 2.44773437 -14.296875 2.32421875 C-15.18890625 2.21722656 -16.0809375 2.11023438 -17 2 C-17 1.67 -17 1.34 -17 1 C-11.29014022 0.25983299 -5.75813575 -0.10469338 0 0 Z " fill="#04150B" transform="translate(539,647)"/>
<path d="M0 0 C0.33 0.66 0.66 1.32 1 2 C-0.98 4.97 -2.96 7.94 -5 11 C-5.33 10.34 -5.66 9.68 -6 9 C-5.0625 6.375 -5.0625 6.375 -4 4 C-4.66 3.67 -5.32 3.34 -6 3 C-4.35 3 -2.7 3 -1 3 C-0.67 2.01 -0.34 1.02 0 0 Z " fill="#1FC07F" transform="translate(311,365)"/>
<path d="M0 0 C0.66 0 1.32 0 2 0 C1.34 2.64 0.68 5.28 0 8 C-0.66 8 -1.32 8 -2 8 C-2 8.66 -2 9.32 -2 10 C-2.66 10 -3.32 10 -4 10 C-2.8905928 6.51329166 -1.73662334 3.22515763 0 0 Z " fill="#0A2416" transform="translate(227,353)"/>
<path d="M0 0 C4.2742558 1.5830577 6.26531794 4.50568404 9 8 C8.01 8.495 8.01 8.495 7 9 C4.03595495 6.19195732 1.55500981 3.81684226 0 0 Z " fill="#22B57A" transform="translate(604,407)"/>
<path d="M0 0 C-0.66 0.66 -1.32 1.32 -2 2 C-1.01 2.99 -0.02 3.98 1 5 C-2.68754757 4.50168276 -4.60490662 3.89932357 -7 1 C-3.375 -1.125 -3.375 -1.125 0 0 Z " fill="#20BD7F" transform="translate(666,218)"/>
<path d="M0 0 C0.66 0.33 1.32 0.66 2 1 C2 1.99 2 2.98 2 4 C-0.64 4.33 -3.28 4.66 -6 5 C-2.25 1.125 -2.25 1.125 0 0 Z " fill="#09140F" transform="translate(416,356)"/>
<path d="M0 0 C-2.31 1.65 -4.62 3.3 -7 5 C-7.33 3.68 -7.66 2.36 -8 1 C-2.25 -1.125 -2.25 -1.125 0 0 Z " fill="#1DC783" transform="translate(328,242)"/>
<path d="M0 0 C0.96516243 3.00272755 1.22393475 5.04215769 0 8 C-0.99 8.33 -1.98 8.66 -3 9 C-3 7.02 -3 5.04 -3 3 C-2.34 3 -1.68 3 -1 3 C-0.67 2.01 -0.34 1.02 0 0 Z " fill="#19CC82" transform="translate(198,424)"/>
<path d="M0 0 C0.66 0 1.32 0 2 0 C1.65120368 3.25543229 0.97866739 4.01873107 -1.5625 6.25 C-2.366875 6.8275 -3.17125 7.405 -4 8 C-3.34 6.02 -2.68 4.04 -2 2 C-1.34 2 -0.68 2 0 2 C0 1.34 0 0.68 0 0 Z " fill="#1AC982" transform="translate(277,281)"/>
<path d="M0 0 C0 3 0 3 -1.375 4.6875 C-3 6 -3 6 -5 6 C-4.75 4.125 -4.75 4.125 -4 2 C-1.9375 0.75 -1.9375 0.75 0 0 Z " fill="#1AC47F" transform="translate(286,274)"/>
<path d="M0 0 C0.99 0 1.98 0 3 0 C1.95125002 2.62187494 1.35068687 3.79371361 -1.125 5.25 C-1.74375 5.4975 -2.3625 5.745 -3 6 C-3 5.01 -3 4.02 -3 3 C-2.34 3 -1.68 3 -1 3 C-0.67 2.01 -0.34 1.02 0 0 Z " fill="#19C781" transform="translate(315,247)"/>
<path d="M0 0 C0.33 1.32 0.66 2.64 1 4 C0.01 4 -0.98 4 -2 4 C-2 4.66 -2 5.32 -2 6 C-3.32 6.33 -4.64 6.66 -6 7 C-4.02 4.69 -2.04 2.38 0 0 Z " fill="#16D486" transform="translate(740,741)"/>
<path d="M0 0 C1.88391785 3.26545761 2.49287967 6.28111761 3 10 C2.34 10 1.68 10 1 10 C-0.83691257 6.21812119 -1.15837626 4.05431692 0 0 Z " fill="#21AF75" transform="translate(196,584)"/>
<path d="M0 0 C0.66 0 1.32 0 2 0 C2 0.99 2 1.98 2 3 C2.66 3.33 3.32 3.66 4 4 C2.68 4.99 1.36 5.98 0 7 C0 4.69 0 2.38 0 0 Z " fill="#081B11" transform="translate(195,441)"/>
</svg>
